<svg width="39" height="41" fill="none" xmlns="http://www.w3.org/2000/svg"><g filter="url(#filter0_d)"><path d="M21.213 14.856l13.432-12.73a1.106 1.106 0 000-1.623 1.259 1.259 0 00-1.712 0L19.5 13.233 6.067.503a1.259 1.259 0 00-1.712 0 1.106 1.106 0 000 1.623l13.432 12.73L4.355 27.585a1.106 1.106 0 000 1.623c.236.224.546.336.856.336.31 0 .62-.112.856-.336L19.5 16.478l13.433 12.73c.236.224.546.336.856.336.31 0 .62-.112.856-.336a1.106 1.106 0 000-1.623l-13.432-12.73z" fill="#fff"/></g><defs><filter id="filter0_d" x="0" y=".167" width="39" height="40.377" filterUnits="userSpaceOnUse" color-interpolation-filters="sRGB"><feFlood flood-opacity="0" result="BackgroundImageFix"/><feColorMatrix in="SourceAlpha" values="0 0 0 0 0 0 0 0 0 0 0 0 0 0 0 0 0 0 127 0" result="hardAlpha"/><feOffset dy="7"/><feGaussianBlur stdDeviation="2"/><feComposite in2="hardAlpha" operator="out"/><feColorMatrix values="0 0 0 0 1 0 0 0 0 1 0 0 0 0 1 0 0 0 0.28 0"/><feBlend in2="BackgroundImageFix" result="effect1_dropShadow"/><feBlend in="SourceGraphic" in2="effect1_dropShadow" result="shape"/></filter></defs></svg>