<svg width="287" height="56" fill="none" xmlns="http://www.w3.org/2000/svg"><path d="M0 18.716C0 9.093 7.952 1.278 17.764 1.278c4.575 0 8.744.785 11.896 2.949v7.255h-1.256c-1.656-4.4-5.81-6.5-10.64-6.5-6.29 0-11.388 6.144-11.388 13.726 0 7.582 5.099 13.726 11.388 13.726 4.83 0 8.984-2.091 10.64-6.5h1.256v7.256c-3.152 2.164-7.32 2.956-11.896 2.956C7.952 36.153 0 28.346 0 18.716zM286.52 4.677a4.75 4.75 0 01-.37 1.903 4.48 4.48 0 01-.995 1.474 4.8 4.8 0 01-1.467.944 4.608 4.608 0 01-1.751.334 4.705 4.705 0 01-1.852-.356 4.24 4.24 0 01-1.452-.98 4.605 4.605 0 01-.952-1.474 4.92 4.92 0 01-.348-1.852c0-.705.123-1.337.37-1.91a4.485 4.485 0 011.003-1.475A4.639 4.639 0 01281.937 0c.61 0 1.191.109 1.751.334a4.689 4.689 0 011.467.951c.414.407.748.901.995 1.475.246.58.37 1.22.37 1.917zm-1.002 0c0-.574-.087-1.09-.276-1.561a3.484 3.484 0 00-.763-1.228 3.593 3.593 0 00-1.14-.799 3.723 3.723 0 00-2.811 0 3.565 3.565 0 00-1.154.8 3.572 3.572 0 00-.756 1.227 4.31 4.31 0 00-.276 1.561c0 .53.088 1.031.247 1.496.167.465.407.879.719 1.227a3.2 3.2 0 001.126.828 3.51 3.51 0 001.496.313 3.457 3.457 0 002.542-1.082c.327-.334.581-.741.762-1.213.197-.472.284-.988.284-1.569zm-4.496 2.673h-.849V2.179h1.96c.625 0 1.097.123 1.409.356.32.225.48.602.48 1.125 0 .465-.131.806-.385 1.024-.254.218-.581.349-.966.392l1.445 2.274h-.959l-1.336-2.215h-.799V7.35zm.952-2.934c.152 0 .312-.008.45-.022a.919.919 0 00.385-.11.707.707 0 00.261-.246c.066-.094.102-.247.102-.443a.61.61 0 00-.109-.378.722.722 0 00-.276-.21 1.066 1.066 0 00-.363-.095 3.53 3.53 0 00-.385-.022h-1.024v1.511h.959v.015zm-10.32 16.202l-.668.668h-12.659v11.236h15.004l.668.668v2.374l-.668.669h-20.785l-.661-.632V1.99l.661-.64h20.785l.668.676v2.375l-.668.668h-15.004v11.235h12.659l.668.669v3.645zm-87.92 14.946l-.182-24.852.022.015 21.061 25.506h4.169l.675-.669.255-33.538-.669-.675h-3.362l-.661.675.283 24.417L184.039 1.35h-3.951l-.668.668-.37 33.545.66.669h3.363l.661-.669zM161.198 23.24l4.576 12.993h7.095L158.947 1.35h-3.174l-14.307 34.882h5.316l4.699-12.978 9.717-.015zm-8.344-4.016l3.457-9.543h.021l3.363 9.55-6.841-.007zM119.083 1.35v34.214l.668.669h5.68V21.286h13.501l.668-.668v-3.645l-.676-.669h-13.493V5.07h15.367l.668-.668V2.026l-.668-.675h-21.715zm-28.607 0v34.214l.676.669h5.679V21.286h13.508l.668-.668v-3.645l-.675-.669H96.831V5.07h15.375l.668-.668V2.026l-.668-.675h-21.73zM77.825 35.906l.668.327h5.033l.675-.327V1.692l-.675-.341h-5.033l-.668.341v34.214zM53.844 1.365c-9.804 0-17.764 7.807-17.764 17.437S44.033 36.24 53.844 36.24c9.819 0 17.764-7.807 17.764-17.438 0-9.63-7.945-17.437-17.764-17.437zm0 31.164c-6.29 0-11.388-6.145-11.388-13.727 0-7.582 5.099-13.733 11.388-13.733 6.297 0 11.388 6.151 11.388 13.733.007 7.582-5.091 13.727-11.388 13.727zM43.72 45.645v1.343h.044c.29-.493.77-.878 1.416-1.14.654-.269 1.409-.407 2.244-.407.785 0 1.474.11 2.04.298.582.21 1.061.48 1.446.814.385.34.676.74.864 1.176.182.458.276.93.276 1.43 0 .502-.087.981-.276 1.431a3.282 3.282 0 01-.864 1.177c-.378.341-.864.61-1.445.806-.567.196-1.257.298-2.04.298-.371 0-.734-.044-1.112-.102a5.576 5.576 0 01-1.039-.283 2.937 2.937 0 01-.842-.48 1.922 1.922 0 01-.574-.667h-.05v3.921h-1.25v-9.615h1.162zm6.885 2.44a2.623 2.623 0 00-.595-.966 3.185 3.185 0 00-1.046-.683c-.436-.181-.937-.261-1.54-.261-.683 0-1.264.08-1.743.232-.45.167-.82.385-1.104.661-.29.276-.486.589-.588.952-.109.37-.182.748-.182 1.147 0 .363.08.726.211 1.09.116.355.32.682.61.95.283.291.654.517 1.111.69.458.175 1.017.262 1.685.262.603 0 1.104-.087 1.54-.261.421-.175.77-.407 1.046-.69.268-.276.472-.603.595-.952.123-.363.189-.733.189-1.089 0-.363-.066-.726-.189-1.082zm11.533-2.44V47.3h.029c.312-.567.813-1.01 1.496-1.322.661-.313 1.46-.45 2.39-.429v.857a5.144 5.144 0 00-1.547.16c-.465.123-.872.29-1.213.523a2.714 2.714 0 00-.792.813 1.924 1.924 0 00-.283 1.024v3.755h-1.25v-7.044h1.17v.007zm18.149.095c.617.21 1.118.471 1.54.805.406.342.704.734.936 1.177.204.457.32.93.32 1.438 0 .515-.116.995-.32 1.445-.225.45-.53.85-.937 1.177-.42.334-.922.595-1.54.798-.602.197-1.3.298-2.084.298-.776 0-1.466-.102-2.07-.298-.61-.203-1.118-.464-1.532-.798a3.36 3.36 0 01-1.256-2.622c0-.509.109-.988.327-1.438.21-.45.523-.835.93-1.177.413-.334.922-.595 1.532-.806a6.904 6.904 0 012.07-.298c.784 0 1.481.11 2.084.298zm-3.646.69c-.45.173-.835.398-1.126.682-.29.283-.515.603-.682.973a2.71 2.71 0 000 2.193c.16.356.385.683.682.952.298.29.676.523 1.126.697.45.167.973.254 1.561.254.61 0 1.133-.08 1.591-.254.45-.175.82-.407 1.118-.697.298-.276.523-.603.683-.952.153-.363.233-.726.233-1.104 0-.377-.08-.733-.233-1.089a2.995 2.995 0 00-.682-.973c-.298-.284-.676-.509-1.119-.683-.45-.174-.98-.254-1.59-.254-.589 0-1.112.073-1.562.254zm17.212-.052v6.311h-1.249v-6.31h-1.772v-.734h1.772v-.632c0-.305.03-.581.087-.835.08-.254.196-.472.392-.654.19-.181.436-.32.763-.421.334-.109.733-.153 1.242-.153.181 0 .363.008.523.015.152 0 .334.022.537.036v.748c-.174-.022-.334-.036-.48-.05-.144-.008-.304-.022-.442-.022-.341 0-.617.036-.799.109-.181.072-.327.174-.407.29a.97.97 0 00-.145.436c-.014.167-.014.334-.014.53v.61h2.026v.734h-2.034v-.008zm11.126 3.98c.124.334.327.632.61.894a3.43 3.43 0 001.054.66c.413.167.936.255 1.539.255.915 0 1.627-.16 2.15-.487a2.515 2.515 0 001.075-1.307h1.249a3.27 3.27 0 01-1.453 1.852c-.711.435-1.721.66-3.021.66-.806 0-1.503-.101-2.099-.297-.595-.203-1.075-.465-1.452-.806a3.182 3.182 0 01-.828-1.177 3.815 3.815 0 01-.269-1.43c0-.465.087-.908.269-1.359.181-.443.45-.842.828-1.19.37-.342.85-.633 1.452-.843.589-.21 1.293-.327 2.099-.327.828 0 1.525.109 2.114.349a4.087 4.087 0 011.43.886c.363.37.625.791.785 1.27.152.48.232.952.203 1.453h-7.916c-.007.29.058.617.181.944zm6.217-2.621a2.502 2.502 0 00-.646-.8 3.503 3.503 0 00-1.017-.559c-.399-.145-.85-.21-1.358-.21-.508 0-.981.065-1.38.21-.392.146-.741.327-1.017.56a2.666 2.666 0 00-.661.798 3.196 3.196 0 00-.334.945h6.66c-.007-.334-.109-.647-.247-.944zm16.094-.72a1.709 1.709 0 00-.596-.479 2.68 2.68 0 00-.842-.283 5.632 5.632 0 00-1.01-.08c-.283 0-.566.022-.857.05a3.372 3.372 0 00-.784.211 1.52 1.52 0 00-.574.378c-.152.153-.21.341-.21.574a.64.64 0 00.196.486c.145.131.312.24.537.334.211.095.443.175.69.226.254.065.479.109.697.145l1.671.254c.363.036.726.102 1.06.196.356.095.668.218.937.37.269.153.501.35.675.574.167.233.262.501.262.806 0 .385-.131.705-.378.974a2.694 2.694 0 01-.966.653 5.752 5.752 0 01-1.322.363c-.486.066-.98.11-1.452.11-1.213 0-2.193-.197-2.941-.589-.748-.392-1.184-1.024-1.286-1.888h1.257c.058.588.37 1.031.929 1.322.567.297 1.264.435 2.106.435.305 0 .618-.021.944-.065.327-.044.625-.123.908-.233.269-.108.501-.24.683-.406a.812.812 0 00.269-.617.766.766 0 00-.189-.53 1.808 1.808 0 00-.509-.356 3.755 3.755 0 00-.733-.233c-.269-.072-.552-.116-.828-.16l-1.605-.247c-.414-.072-.784-.16-1.14-.254a4.525 4.525 0 01-.908-.348 1.861 1.861 0 01-.603-.523c-.152-.204-.225-.458-.225-.763 0-.356.123-.654.356-.915.232-.254.537-.458.915-.617.356-.153.777-.254 1.242-.334a9.682 9.682 0 011.365-.11c.523 0 1.01.052 1.438.139.458.094.85.232 1.177.414.341.196.61.435.813.719.189.276.305.617.341.995h-1.256a1.395 1.395 0 00-.254-.698zm16.566 0a1.683 1.683 0 00-.589-.479 2.852 2.852 0 00-.849-.283 5.8 5.8 0 00-1.024-.08c-.284 0-.567.022-.843.05-.29.044-.545.11-.792.211a1.69 1.69 0 00-.581.378.826.826 0 00-.217.574.65.65 0 00.21.486c.145.131.327.24.523.334.225.095.45.175.705.226.247.065.486.109.69.145l1.692.254c.348.036.704.102 1.053.196.356.095.675.218.944.37.276.153.494.35.668.574a1.391 1.391 0 01-.116 1.78 2.935 2.935 0 01-.973.653 5.635 5.635 0 01-1.329.363c-.487.066-.974.11-1.453.11-1.205 0-2.186-.197-2.934-.589-.748-.392-1.176-1.024-1.285-1.888h1.249c.058.588.37 1.031.922 1.322.581.297 1.271.435 2.106.435.298 0 .632-.021.959-.065.312-.044.617-.123.886-.233a2.15 2.15 0 00.697-.406.844.844 0 00.276-.617.735.735 0 00-.196-.53 1.72 1.72 0 00-.508-.356 3.787 3.787 0 00-.734-.233 7.96 7.96 0 00-.828-.16l-1.605-.247a12.06 12.06 0 01-1.133-.254 4.1 4.1 0 01-.908-.348 1.978 1.978 0 01-.61-.523c-.145-.204-.218-.458-.218-.763 0-.356.124-.654.349-.915.232-.254.53-.458.901-.617a6.321 6.321 0 011.241-.334 9.708 9.708 0 011.366-.11 7.46 7.46 0 011.445.139c.45.094.835.232 1.177.414.341.196.617.435.813.719.196.276.32.617.334.995h-1.256a1.252 1.252 0 00-.225-.698zm11.903-4.074v1.373h-1.249v-1.373h1.249zm0 2.702v7.044h-1.249v-7.044h1.249zm15.81.095c.603.21 1.111.471 1.533.805.414.342.719.734.929 1.177.211.457.312.93.312 1.438 0 .515-.094.995-.312 1.445-.21.45-.515.85-.929 1.177-.422.334-.93.595-1.533.798-.603.197-1.3.298-2.091.298-.77 0-1.467-.102-2.07-.298-.603-.203-1.104-.464-1.518-.798a3.486 3.486 0 01-.944-1.177 3.457 3.457 0 01-.312-1.445c0-.509.108-.988.312-1.438.218-.45.537-.835.944-1.177.414-.334.922-.595 1.518-.806a6.94 6.94 0 012.07-.298c.784 0 1.488.11 2.091.298zm-3.653.69a3.387 3.387 0 00-1.133.682 2.673 2.673 0 00-.661.973 2.621 2.621 0 00-.239 1.09c0 .37.08.74.239 1.103.146.356.363.683.661.952.305.29.676.523 1.133.697.443.167.973.254 1.562.254.61 0 1.133-.08 1.59-.254a3.439 3.439 0 001.126-.697 2.97 2.97 0 00.682-.952c.153-.363.233-.726.233-1.104 0-.377-.08-.733-.233-1.089a2.876 2.876 0 00-.682-.973 3.535 3.535 0 00-1.126-.683c-.457-.174-.973-.254-1.59-.254-.596 0-1.119.073-1.562.254zm16.515-.785v1.22h.036c.233-.421.661-.77 1.279-1.031a5.067 5.067 0 012.011-.393c.727 0 1.322.066 1.801.19.487.13.894.304 1.177.537.298.232.494.515.617.857.116.341.174.711.174 1.133v4.531h-1.249v-4.393c0-.298-.043-.581-.13-.843a1.582 1.582 0 00-.407-.675c-.203-.19-.472-.334-.813-.45-.335-.117-.763-.16-1.257-.16-.508 0-.959.05-1.351.174a3.363 3.363 0 00-.995.501 2.7 2.7 0 00-.639.77 2.48 2.48 0 00-.247.966v4.11h-1.256v-7.044h1.249zm17.67 0v1.22h.036c.24-.421.668-.77 1.286-1.031a5.058 5.058 0 012.004-.393c.719 0 1.329.066 1.808.19.48.13.879.304 1.17.537.29.232.501.515.61.857.116.341.196.711.196 1.133v4.531h-1.271v-4.393c0-.298-.036-.581-.116-.843a1.538 1.538 0 00-.422-.675c-.196-.19-.464-.334-.806-.45-.341-.117-.755-.16-1.271-.16-.501 0-.958.05-1.336.174a3.24 3.24 0 00-1.002.501c-.262.225-.48.48-.632.77a2.349 2.349 0 00-.247.966v4.11h-1.256v-7.044h1.249zm17.364 4.713c.138.334.342.632.618.894a3.34 3.34 0 001.053.66c.421.167.951.255 1.547.255.915 0 1.626-.16 2.149-.487a2.583 2.583 0 001.075-1.307h1.257a3.297 3.297 0 01-1.467 1.852c-.712.435-1.714.66-3.014.66-.814 0-1.518-.101-2.107-.297-.588-.203-1.074-.465-1.437-.806a3.3 3.3 0 01-.836-1.177 4.142 4.142 0 01-.276-1.43c0-.465.109-.908.276-1.359.189-.443.458-.842.836-1.19.363-.342.856-.633 1.437-.843.589-.21 1.293-.327 2.107-.327.813 0 1.525.109 2.098.349.596.218 1.068.515 1.424.886.37.37.632.791.792 1.27.152.48.225.952.203 1.453h-7.924c0 .29.073.617.189.944zm6.224-2.621a2.576 2.576 0 00-.639-.8 3.53 3.53 0 00-1.024-.559c-.399-.145-.857-.21-1.351-.21-.523 0-.987.065-1.372.21a3.16 3.16 0 00-1.017.56 2.566 2.566 0 00-.661.798 3.078 3.078 0 00-.349.945h6.66a2.138 2.138 0 00-.247-.944zm11.446-4.794v9.74h-1.256v-9.74h1.256zm-21.163-24.141c0 9.63 7.952 17.438 17.764 17.438 4.583 0 8.751-.785 11.896-2.956v-7.255h-1.256c-1.656 4.408-5.81 6.5-10.647 6.5-6.289 0-11.388-6.145-11.388-13.727 0-7.582 5.099-13.733 11.388-13.733 4.837 0 8.991 2.092 10.647 6.507h1.256V4.321c-3.145-2.164-7.313-2.956-11.896-2.956-9.804 0-17.764 7.807-17.764 17.437z" fill="#EDEDED"/></svg>