<svg width="287" height="56" viewBox="0 0 287 56" fill="none" xmlns="http://www.w3.org/2000/svg">
<path d="M0 18.7156C0 9.09276 7.95243 1.27832 17.7641 1.27832C22.3394 1.27832 26.5081 2.06267 29.66 4.22689V11.4821H28.4036C26.7478 7.08105 22.5936 4.98219 17.7641 4.98219C11.4747 4.98219 6.37647 11.1263 6.37647 18.7083C6.37647 26.2904 11.4747 32.4344 17.7641 32.4344C22.5936 32.4344 26.7478 30.3428 28.4036 25.9345H29.66V33.1897C26.5081 35.3539 22.3394 36.1456 17.7641 36.1456C7.95243 36.1528 0 28.3456 0 18.7156Z" fill="#EDEDED"/>
<path d="M286.52 4.67705C286.52 5.37425 286.396 6.01335 286.15 6.57982C285.903 7.15356 285.576 7.64741 285.155 8.05411C284.726 8.45354 284.24 8.77309 283.688 8.99823C283.128 9.22337 282.555 9.33231 281.937 9.33231C281.269 9.33231 280.652 9.21611 280.085 8.97644C279.519 8.74404 279.032 8.40997 278.633 7.99601C278.226 7.58204 277.914 7.08093 277.681 6.52172C277.449 5.94798 277.333 5.32341 277.333 4.66978C277.333 3.96532 277.456 3.33348 277.703 2.75975C277.95 2.18601 278.284 1.69216 278.706 1.28546C279.127 0.878762 279.621 0.559212 280.18 0.334075C280.739 0.108937 281.32 0 281.937 0C282.547 0 283.128 0.108937 283.688 0.334075C284.24 0.559212 284.726 0.878762 285.155 1.28546C285.569 1.69216 285.903 2.18601 286.15 2.75975C286.396 3.34075 286.52 3.97985 286.52 4.67705ZM285.518 4.67705C285.518 4.10331 285.431 3.58767 285.242 3.11561C285.067 2.63629 284.806 2.22959 284.479 1.88825C284.152 1.54691 283.775 1.28546 283.339 1.08937C282.91 0.915074 282.446 0.813399 281.937 0.813399C281.429 0.813399 280.957 0.915074 280.528 1.08937C280.085 1.28546 279.7 1.54691 279.374 1.88825C279.047 2.22959 278.8 2.63629 278.618 3.11561C278.437 3.58767 278.342 4.10331 278.342 4.67705C278.342 5.20721 278.43 5.70832 278.589 6.17312C278.756 6.63792 278.996 7.05188 279.308 7.40048C279.621 7.75634 279.991 8.03232 280.434 8.22841C280.87 8.43176 281.371 8.54069 281.93 8.54069C282.431 8.54069 282.903 8.44628 283.332 8.25746C283.767 8.06863 284.145 7.80718 284.472 7.45858C284.799 7.12451 285.053 6.71781 285.234 6.24575C285.431 5.77368 285.518 5.25805 285.518 4.67705ZM281.022 7.34964H280.173V2.17875H282.133C282.758 2.17875 283.23 2.30221 283.542 2.53461C283.862 2.75975 284.022 3.1374 284.022 3.6603C284.022 4.1251 283.891 4.46643 283.637 4.68431C283.383 4.90218 283.056 5.03291 282.671 5.07648L284.116 7.34964H283.157L281.821 5.13458H281.022V7.34964ZM281.974 4.4156C282.126 4.4156 282.286 4.40833 282.424 4.39381C282.569 4.37928 282.7 4.35023 282.809 4.28487C282.918 4.22677 283.005 4.13962 283.07 4.03795C283.136 3.94353 283.172 3.79102 283.172 3.59493C283.172 3.44242 283.136 3.3117 283.063 3.21729C282.99 3.13014 282.896 3.05025 282.787 3.00667C282.685 2.9631 282.562 2.91952 282.424 2.91226C282.293 2.89774 282.162 2.89047 282.039 2.89047H281.015V4.40107H281.974V4.4156Z" fill="#EDEDED"/>
<path d="M271.654 20.6182L270.986 21.2864H258.327V32.5215H273.331L273.999 33.1896V35.5644L273.331 36.2326H252.546L251.885 35.6008V1.98993L252.546 1.35083H273.331L273.999 2.02624V4.40108L273.331 5.06923H258.327V16.3043H270.986L271.654 16.9725V20.6182Z" fill="#EDEDED"/>
<path d="M183.734 35.5644L183.552 10.7122L183.574 10.7267L204.635 36.2326H208.804L209.479 35.5644L209.734 2.02624L209.065 1.35083H205.703L205.042 2.02624L205.325 26.4428L184.039 1.35083H180.088L179.42 2.01898L179.05 35.5644L179.71 36.2326H183.073L183.734 35.5644Z" fill="#EDEDED"/>
<path d="M161.198 23.24L165.774 36.2326H172.869L158.947 1.35083H155.773L141.466 36.2326H146.782L151.481 23.2545L161.198 23.24ZM152.854 19.2238L156.311 9.68091H156.332L159.695 19.2311L152.854 19.2238Z" fill="#EDEDED"/>
<path d="M119.083 1.35083V35.5644L119.751 36.2326H125.431V21.2864H138.932L139.6 20.6182V16.9725L138.924 16.3043H125.431V5.06923H140.798L141.466 4.40108V2.02624L140.798 1.35083H119.083Z" fill="#EDEDED"/>
<path d="M90.4762 1.35083V35.5644L91.1516 36.2326H96.8309V21.2864H110.339L111.007 20.6182V16.9725L110.332 16.3043H96.8309V5.06923H112.206L112.874 4.40108V2.02624L112.206 1.35083H90.4762Z" fill="#EDEDED"/>
<path d="M77.825 35.9058L78.4931 36.2326H83.526L84.2014 35.9058V1.69217L83.526 1.35083H78.4931L77.825 1.69217V35.9058Z" fill="#EDEDED"/>
<path d="M53.8441 1.36523C44.0398 1.36523 36.0801 9.17241 36.0801 18.8025C36.0801 28.4326 44.0325 36.2397 53.8441 36.2397C63.663 36.2397 71.6082 28.4326 71.6082 18.8025C71.6082 9.17241 63.663 1.36523 53.8441 1.36523ZM53.8441 32.5286C47.5548 32.5286 42.4565 26.3845 42.4565 18.8025C42.4565 11.2204 47.5548 5.06911 53.8441 5.06911C60.1407 5.06911 65.2317 11.2204 65.2317 18.8025C65.239 26.3845 60.1407 32.5286 53.8441 32.5286Z" fill="#EDEDED"/>
<path d="M43.7202 45.6448V46.9883H43.7638C44.0543 46.4945 44.5336 46.1096 45.18 45.8481C45.8336 45.5794 46.5889 45.4414 47.4241 45.4414C48.2085 45.4414 48.8984 45.5503 49.4649 45.7392C50.0459 45.9498 50.5252 46.2185 50.9101 46.5526C51.295 46.8939 51.5855 47.2933 51.7743 47.7291C51.9559 48.1866 52.0503 48.6587 52.0503 49.1598C52.0503 49.6609 51.9632 50.1402 51.7743 50.5905C51.5855 51.0335 51.295 51.4257 50.9101 51.767C50.5324 52.1084 50.0459 52.3771 49.4649 52.5732C48.8984 52.7693 48.2085 52.8709 47.4241 52.8709C47.0537 52.8709 46.6906 52.8274 46.3129 52.7693C45.9426 52.7039 45.594 52.6095 45.2744 52.486C44.9403 52.3626 44.6644 52.1955 44.432 52.0067C44.1778 51.8179 43.9889 51.5927 43.8582 51.3386H43.8074V55.2603H42.5582V45.6448H43.7202ZM50.6051 48.085C50.4816 47.7218 50.2783 47.4023 50.0095 47.119C49.7336 46.8431 49.385 46.6107 48.9637 46.4364C48.528 46.2548 48.0269 46.1749 47.4241 46.1749C46.7414 46.1749 46.1604 46.2548 45.6811 46.4073C45.2308 46.5744 44.8604 46.7922 44.5772 47.0682C44.2867 47.3442 44.0906 47.6565 43.9889 48.0196C43.88 48.39 43.8074 48.7676 43.8074 49.1671C43.8074 49.5302 43.8873 49.8933 44.018 50.2564C44.1342 50.6123 44.3375 50.9391 44.628 51.2078C44.9113 51.4983 45.2817 51.7235 45.7392 51.8978C46.1967 52.0721 46.756 52.1592 47.4241 52.1592C48.0269 52.1592 48.528 52.0721 48.9637 51.8978C49.385 51.7235 49.7336 51.4911 50.0095 51.2078C50.2783 50.9319 50.4816 50.605 50.6051 50.2564C50.7285 49.8933 50.7939 49.5229 50.7939 49.1671C50.7939 48.8039 50.7285 48.4408 50.6051 48.085Z" fill="#EDEDED"/>
<path d="M62.138 45.6447V47.3006H62.167C62.4793 46.7341 62.9804 46.2911 63.6631 45.9788C64.324 45.6665 65.1228 45.5285 66.0524 45.5503V46.4073C65.4787 46.3855 64.9558 46.4436 64.5055 46.5671C64.0407 46.6905 63.634 46.8576 63.2927 47.09C62.9586 47.3224 62.6899 47.5911 62.5011 47.9034C62.3123 48.2084 62.2178 48.557 62.2178 48.9274V52.6821H60.9687V45.6375H62.138V45.6447Z" fill="#EDEDED"/>
<path d="M80.2869 45.7392C80.9042 45.9498 81.4053 46.2112 81.8265 46.5453C82.2332 46.8866 82.531 47.2788 82.7634 47.7218C82.9667 48.1794 83.0829 48.6514 83.0829 49.1598C83.0829 49.6754 82.9667 50.1548 82.7634 50.605C82.5383 51.0553 82.2332 51.4548 81.8265 51.7816C81.4053 52.1156 80.9042 52.3771 80.2869 52.5804C79.6841 52.7765 78.9869 52.8782 78.2025 52.8782C77.4255 52.8782 76.7355 52.7765 76.1327 52.5804C75.5227 52.3771 75.0143 52.1156 74.6003 51.7816C74.1936 51.4475 73.8814 51.0553 73.6707 50.605C73.4601 50.1548 73.3439 49.6754 73.3439 49.1598C73.3439 48.6514 73.4529 48.1721 73.6707 47.7218C73.8814 47.2716 74.1936 46.8866 74.6003 46.5453C75.0143 46.2112 75.5227 45.9498 76.1327 45.7392C76.7355 45.5503 77.4255 45.4414 78.2025 45.4414C78.9869 45.4414 79.6841 45.5503 80.2869 45.7392ZM76.6411 46.4291C76.1908 46.6034 75.8059 46.8285 75.5154 47.1118C75.2249 47.395 74.9998 47.7146 74.8327 48.085C74.673 48.4408 74.6003 48.7967 74.6003 49.1743C74.6003 49.5447 74.673 49.9151 74.8327 50.2782C74.9925 50.6341 75.2177 50.9609 75.5154 51.2296C75.8132 51.5201 76.1908 51.7525 76.6411 51.9268C77.0914 52.0938 77.6143 52.181 78.2025 52.181C78.8126 52.181 79.3355 52.1011 79.793 51.9268C80.2433 51.7525 80.6137 51.5201 80.9115 51.2296C81.2092 50.9536 81.4344 50.6268 81.5941 50.2782C81.7466 49.9151 81.8265 49.552 81.8265 49.1743C81.8265 48.7967 81.7466 48.4408 81.5941 48.085C81.4344 47.7146 81.2092 47.4023 80.9115 47.1118C80.6137 46.8285 80.236 46.6034 79.793 46.4291C79.3428 46.2548 78.8126 46.1749 78.2025 46.1749C77.6143 46.1749 77.0914 46.2475 76.6411 46.4291Z" fill="#EDEDED"/>
<path d="M93.8533 46.3783V52.6894H92.6041V46.3783H90.8321V45.6448H92.6041V45.013C92.6041 44.708 92.6332 44.432 92.6913 44.1778C92.7712 43.9236 92.8874 43.7057 93.0835 43.5242C93.2723 43.3426 93.5192 43.2046 93.846 43.103C94.1801 42.994 94.5795 42.9504 95.0879 42.9504C95.2695 42.9504 95.451 42.9577 95.6108 42.965C95.7633 42.965 95.9449 42.9868 96.1482 43.0013V43.7493C95.9739 43.7275 95.8142 43.713 95.6689 43.6985C95.5237 43.6912 95.3639 43.6767 95.2259 43.6767C94.8846 43.6767 94.6086 43.713 94.427 43.7856C94.2455 43.8582 94.1002 43.9599 94.0203 44.0761C93.9404 44.2069 93.8896 44.3448 93.8751 44.5119C93.8605 44.6789 93.8606 44.8459 93.8606 45.042V45.6521H95.8868V46.3856H93.8533V46.3783Z" fill="#EDEDED"/>
<path d="M104.979 50.3582C105.103 50.6923 105.306 50.9901 105.589 51.2515C105.865 51.513 106.221 51.7381 106.643 51.9124C107.056 52.0794 107.579 52.1666 108.182 52.1666C109.097 52.1666 109.809 52.0068 110.332 51.68C110.855 51.3532 111.211 50.9174 111.407 50.3728H112.656C112.402 51.1716 111.915 51.789 111.203 52.2247C110.492 52.6604 109.482 52.8856 108.182 52.8856C107.376 52.8856 106.679 52.7839 106.083 52.5878C105.488 52.3845 105.008 52.123 104.631 51.7817C104.253 51.4404 103.984 51.0482 103.803 50.6052C103.621 50.1476 103.534 49.6756 103.534 49.1744C103.534 48.7096 103.621 48.2666 103.803 47.8164C103.984 47.3734 104.253 46.9739 104.631 46.6253C105.001 46.284 105.481 45.9935 106.083 45.7829C106.672 45.5723 107.376 45.4561 108.182 45.4561C109.01 45.4561 109.707 45.565 110.296 45.8047C110.877 46.0225 111.341 46.3203 111.726 46.6907C112.089 47.0611 112.351 47.4823 112.511 47.9616C112.663 48.4409 112.743 48.913 112.714 49.4141H104.798C104.791 49.7046 104.856 50.0314 104.979 50.3582ZM111.196 47.7365C111.044 47.4387 110.826 47.1627 110.55 46.9376C110.267 46.7052 109.925 46.5236 109.533 46.3784C109.134 46.2331 108.683 46.1678 108.175 46.1678C107.667 46.1678 107.194 46.2331 106.795 46.3784C106.403 46.5236 106.054 46.7052 105.778 46.9376C105.502 47.1627 105.277 47.4387 105.117 47.7365C104.95 48.0488 104.841 48.361 104.783 48.6806H111.443C111.436 48.3465 111.334 48.0342 111.196 47.7365Z" fill="#EDEDED"/>
<path d="M127.29 47.0174C127.13 46.8213 126.948 46.6616 126.694 46.5381C126.447 46.4074 126.171 46.3057 125.852 46.2549C125.54 46.1968 125.191 46.175 124.842 46.175C124.559 46.175 124.276 46.1968 123.985 46.2258C123.709 46.2694 123.441 46.3348 123.201 46.4364C122.961 46.5308 122.765 46.6616 122.627 46.8141C122.475 46.9666 122.417 47.1554 122.417 47.3878C122.417 47.5766 122.475 47.7437 122.613 47.8744C122.758 48.0051 122.925 48.1141 123.15 48.2085C123.361 48.3029 123.593 48.3828 123.84 48.4336C124.094 48.499 124.319 48.5426 124.537 48.5789L126.208 48.8331C126.571 48.8694 126.934 48.9347 127.268 49.0291C127.624 49.1236 127.936 49.247 128.205 49.3995C128.474 49.552 128.706 49.7481 128.88 49.9733C129.047 50.2057 129.142 50.4744 129.142 50.7794C129.142 51.1643 129.011 51.4839 128.764 51.7526C128.517 52.0213 128.198 52.2392 127.798 52.4062C127.406 52.5732 126.963 52.6894 126.476 52.7693C125.99 52.8347 125.496 52.8783 125.024 52.8783C123.811 52.8783 122.831 52.6822 122.083 52.29C121.335 51.8978 120.899 51.266 120.797 50.4018H122.054C122.112 50.99 122.424 51.433 122.983 51.7235C123.55 52.0213 124.247 52.1593 125.089 52.1593C125.394 52.1593 125.707 52.1375 126.033 52.0939C126.36 52.0503 126.658 51.9705 126.941 51.8615C127.21 51.7526 127.442 51.6218 127.624 51.4548C127.805 51.2878 127.893 51.0772 127.893 50.8375C127.893 50.6196 127.827 50.4453 127.704 50.3073C127.573 50.1694 127.399 50.0532 127.195 49.9515C126.978 49.8643 126.738 49.7699 126.462 49.7191C126.193 49.6465 125.91 49.6029 125.634 49.5593L124.029 49.3124C123.615 49.2398 123.245 49.1526 122.889 49.0582C122.547 48.9638 122.242 48.8476 121.981 48.7096C121.727 48.5643 121.523 48.39 121.378 48.1867C121.226 47.9833 121.153 47.7292 121.153 47.4241C121.153 47.0683 121.276 46.7705 121.509 46.5091C121.741 46.2549 122.046 46.0515 122.424 45.8917C122.78 45.7392 123.201 45.6376 123.666 45.5577C124.123 45.4923 124.581 45.4487 125.031 45.4487C125.554 45.4487 126.041 45.4996 126.469 45.5867C126.927 45.6811 127.319 45.8191 127.646 46.0007C127.987 46.1968 128.256 46.4364 128.459 46.7197C128.648 46.9956 128.764 47.337 128.8 47.7146H127.544C127.515 47.4459 127.435 47.2135 127.29 47.0174Z" fill="#EDEDED"/>
<path d="M143.856 47.0174C143.71 46.8213 143.507 46.6616 143.267 46.5381C143.013 46.4074 142.73 46.3057 142.418 46.2549C142.091 46.1968 141.757 46.175 141.394 46.175C141.11 46.175 140.827 46.1968 140.551 46.2258C140.261 46.2694 140.006 46.3348 139.759 46.4364C139.52 46.5308 139.331 46.6616 139.178 46.8141C139.04 46.9666 138.961 47.1554 138.961 47.3878C138.961 47.5766 139.033 47.7437 139.171 47.8744C139.316 48.0051 139.498 48.1141 139.694 48.2085C139.919 48.3029 140.144 48.3828 140.399 48.4336C140.646 48.499 140.885 48.5426 141.089 48.5789L142.781 48.8331C143.129 48.8694 143.485 48.9347 143.834 49.0291C144.19 49.1236 144.509 49.247 144.778 49.3995C145.054 49.552 145.272 49.7481 145.446 49.9733C145.613 50.2057 145.715 50.4744 145.715 50.7794C145.715 51.1643 145.577 51.4839 145.33 51.7526C145.076 52.0213 144.742 52.2392 144.357 52.4062C143.964 52.5732 143.529 52.6894 143.028 52.7693C142.541 52.8347 142.054 52.8783 141.575 52.8783C140.37 52.8783 139.389 52.6822 138.641 52.29C137.893 51.8978 137.465 51.266 137.356 50.4018H138.605C138.663 50.99 138.975 51.433 139.527 51.7235C140.108 52.0213 140.798 52.1593 141.633 52.1593C141.931 52.1593 142.265 52.1375 142.592 52.0939C142.904 52.0503 143.209 51.9705 143.478 51.8615C143.761 51.7526 143.994 51.6218 144.175 51.4548C144.349 51.2878 144.451 51.0772 144.451 50.8375C144.451 50.6196 144.386 50.4453 144.255 50.3073C144.124 50.1694 143.957 50.0532 143.747 49.9515C143.529 49.8643 143.289 49.7699 143.013 49.7191C142.737 49.6465 142.468 49.6029 142.185 49.5593L140.58 49.3124C140.159 49.2398 139.796 49.1526 139.447 49.0582C139.099 48.9638 138.786 48.8476 138.539 48.7096C138.278 48.5643 138.089 48.39 137.929 48.1867C137.784 47.9833 137.711 47.7292 137.711 47.4241C137.711 47.0683 137.835 46.7705 138.06 46.5091C138.292 46.2549 138.59 46.0515 138.961 45.8917C139.338 45.7392 139.759 45.6376 140.202 45.5577C140.66 45.4923 141.118 45.4487 141.568 45.4487C142.091 45.4487 142.57 45.4996 143.013 45.5867C143.463 45.6811 143.848 45.8191 144.19 46.0007C144.531 46.1968 144.807 46.4364 145.003 46.7197C145.199 46.9956 145.323 47.337 145.337 47.7146H144.081C144.073 47.4459 143.994 47.2135 143.856 47.0174Z" fill="#EDEDED"/>
<path d="M155.759 42.9431V44.3157H154.51V42.9431H155.759ZM155.759 45.6448V52.6894H154.51V45.6448H155.759Z" fill="#EDEDED"/>
<path d="M171.569 45.7392C172.172 45.9498 172.68 46.2112 173.102 46.5453C173.516 46.8866 173.821 47.2788 174.031 47.7218C174.242 48.1794 174.343 48.6514 174.343 49.1598C174.343 49.6754 174.249 50.1548 174.031 50.605C173.821 51.0553 173.516 51.4548 173.102 51.7816C172.68 52.1156 172.172 52.3771 171.569 52.5804C170.966 52.7765 170.269 52.8782 169.478 52.8782C168.708 52.8782 168.011 52.7765 167.408 52.5804C166.805 52.3771 166.304 52.1156 165.89 51.7816C165.483 51.4475 165.164 51.0553 164.946 50.605C164.742 50.1548 164.634 49.6754 164.634 49.1598C164.634 48.6514 164.742 48.1721 164.946 47.7218C165.164 47.2716 165.483 46.8866 165.89 46.5453C166.304 46.2112 166.812 45.9498 167.408 45.7392C168.011 45.5503 168.708 45.4414 169.478 45.4414C170.262 45.4414 170.966 45.5503 171.569 45.7392ZM167.916 46.4291C167.459 46.6034 167.088 46.8285 166.783 47.1118C166.485 47.395 166.268 47.7146 166.122 48.085C165.963 48.4408 165.883 48.7967 165.883 49.1743C165.883 49.5447 165.963 49.9151 166.122 50.2782C166.268 50.6341 166.485 50.9609 166.783 51.2296C167.088 51.5201 167.459 51.7525 167.916 51.9268C168.359 52.0938 168.889 52.181 169.478 52.181C170.088 52.181 170.611 52.1011 171.068 51.9268C171.511 51.7525 171.889 51.5201 172.194 51.2296C172.492 50.9536 172.717 50.6268 172.876 50.2782C173.029 49.9151 173.109 49.552 173.109 49.1743C173.109 48.7967 173.029 48.4408 172.876 48.085C172.717 47.7146 172.499 47.4023 172.194 47.1118C171.889 46.8285 171.511 46.6034 171.068 46.4291C170.611 46.2548 170.095 46.1749 169.478 46.1749C168.882 46.1749 168.359 46.2475 167.916 46.4291Z" fill="#EDEDED"/>
<path d="M184.431 45.6448V46.8649H184.467C184.7 46.4436 185.128 46.095 185.746 45.8336C186.363 45.5721 187.024 45.4414 187.757 45.4414C188.484 45.4414 189.079 45.5068 189.558 45.6302C190.045 45.761 190.452 45.9353 190.735 46.1677C191.033 46.4001 191.229 46.6833 191.352 47.0246C191.468 47.366 191.526 47.7364 191.526 48.1576V52.6894H190.277V48.2956C190.277 47.9978 190.234 47.7146 190.147 47.4531C190.067 47.1989 189.936 46.9665 189.74 46.7777C189.537 46.5889 189.268 46.4436 188.927 46.3274C188.592 46.2112 188.164 46.1677 187.67 46.1677C187.162 46.1677 186.711 46.2185 186.319 46.342C185.927 46.4654 185.6 46.6397 185.324 46.8431C185.063 47.0682 184.838 47.3224 184.685 47.6129C184.54 47.9179 184.453 48.2375 184.438 48.5788V52.6894H183.182V45.6448H184.431Z" fill="#EDEDED"/>
<path d="M202.101 45.6448V46.8649H202.137C202.377 46.4436 202.805 46.095 203.423 45.8336C204.04 45.5721 204.701 45.4414 205.427 45.4414C206.146 45.4414 206.756 45.5068 207.235 45.6302C207.715 45.761 208.114 45.9353 208.405 46.1677C208.695 46.4001 208.906 46.6833 209.015 47.0246C209.131 47.366 209.211 47.7364 209.211 48.1576V52.6894H207.94V48.2956C207.94 47.9978 207.904 47.7146 207.824 47.4531C207.744 47.1989 207.606 46.9665 207.402 46.7777C207.206 46.5889 206.938 46.4436 206.596 46.3274C206.255 46.2112 205.841 46.1677 205.325 46.1677C204.824 46.1677 204.367 46.2185 203.989 46.342C203.59 46.4654 203.256 46.6397 202.987 46.8431C202.725 47.0682 202.507 47.3224 202.355 47.6129C202.202 47.9179 202.123 48.2375 202.108 48.5788V52.6894H200.852V45.6448H202.101Z" fill="#EDEDED"/>
<path d="M219.465 50.3582C219.603 50.6923 219.807 50.9901 220.083 51.2515C220.359 51.513 220.707 51.7381 221.136 51.9124C221.557 52.0794 222.087 52.1666 222.683 52.1666C223.598 52.1666 224.309 52.0068 224.832 51.68C225.348 51.3532 225.704 50.9174 225.907 50.3728H227.164C226.902 51.1716 226.416 51.789 225.697 52.2247C224.985 52.6604 223.983 52.8856 222.683 52.8856C221.869 52.8856 221.165 52.7839 220.576 52.5878C219.988 52.3845 219.502 52.123 219.139 51.7817C218.761 51.4404 218.492 51.0482 218.303 50.6052C218.136 50.1476 218.027 49.6756 218.027 49.1744C218.027 48.7096 218.136 48.2666 218.303 47.8164C218.492 47.3734 218.761 46.9739 219.139 46.6253C219.502 46.284 219.995 45.9935 220.576 45.7829C221.165 45.5723 221.869 45.4561 222.683 45.4561C223.496 45.4561 224.208 45.565 224.781 45.8047C225.377 46.0225 225.849 46.3203 226.205 46.6907C226.575 47.0611 226.837 47.4823 226.997 47.9616C227.149 48.4409 227.222 48.913 227.2 49.4141H219.276C219.276 49.7046 219.349 50.0314 219.465 50.3582ZM225.689 47.7365C225.537 47.4387 225.319 47.1627 225.05 46.9376C224.76 46.7052 224.426 46.5236 224.026 46.3784C223.627 46.2331 223.169 46.1678 222.675 46.1678C222.152 46.1678 221.688 46.2331 221.303 46.3784C220.889 46.5236 220.562 46.7052 220.286 46.9376C220.01 47.1627 219.778 47.4387 219.625 47.7365C219.444 48.0488 219.342 48.361 219.276 48.6806H225.936C225.929 48.3465 225.842 48.0342 225.689 47.7365Z" fill="#EDEDED"/>
<path d="M237.135 42.9431V52.6821H235.879V42.9431H237.135Z" fill="#EDEDED"/>
<path d="M215.972 18.8025C215.972 28.4326 223.924 36.2397 233.736 36.2397C238.319 36.2397 242.487 35.4554 245.632 33.2839V26.0287H244.376C242.72 30.437 238.566 32.5286 233.729 32.5286C227.44 32.5286 222.341 26.3845 222.341 18.8025C222.341 11.2204 227.44 5.06911 233.729 5.06911C238.566 5.06911 242.72 7.16071 244.376 11.5763H245.632V4.32107C242.487 2.15685 238.319 1.36523 233.736 1.36523C223.932 1.36523 215.972 9.17241 215.972 18.8025Z" fill="#EDEDED"/>
</svg>
