<svg width="21" height="12" fill="none" xmlns="http://www.w3.org/2000/svg"><path d="M17.426 6.881c-.34-.42-.242-.607 0-.982.005-.004 2.807-3.798 3.096-5.085h.002c.143-.47 0-.814-.694-.814h-2.296c-.585 0-.854.296-.999.627 0 0-1.169 2.74-2.822 4.518-.534.513-.78.678-1.072.678-.144 0-.367-.165-.367-.634V.813c0-.562-.164-.813-.647-.813h-3.61c-.367 0-.585.262-.585.507 0 .533.827.655.912 2.155v3.255c0 .713-.132.844-.425.844-.78 0-2.675-2.752-3.798-5.902C3.895.248 3.673 0 3.084 0H.788C.132 0 0 .297 0 .627 0 1.212.78 4.12 3.63 7.96 5.528 10.579 8.203 12 10.635 12c1.462 0 1.64-.315 1.64-.858 0-2.505-.131-2.741.601-2.741.34 0 .924.164 2.29 1.429 1.56 1.499 1.816 2.17 2.689 2.17h2.296c.655 0 .986-.315.796-.938-.437-1.309-3.388-4-3.52-4.18z"/></svg>